<?xml version="1.0" encoding="UTF-8"?>
<svg width="512" height="512" viewBox="0 0 512 512" fill="none" xmlns="http://www.w3.org/2000/svg">
  <circle cx="256" cy="256" r="256" fill="#E60023"/>
  <path d="M266.6 120c-66.4 0-129.5 44.1-129.5 113.3 0 43.7 16.5 72.9 52.5 85.7 2.4 1 4.6.1 5.3-2.7l6.5-25.7c.6-2.2.4-3-1.3-4.9-7.9-9.3-14.2-26.4-14.2-47.5 0-61.2 45.8-120.1 123.7-120.1 67.4 0 114.5 41.1 114.5 99.5 0 66.1-29.3 111.8-67.5 111.8-21.1 0-36.9-17.4-31.8-38.8 6.1-25.5 17.8-53.1 17.8-71.5 0-16.5-8.8-30.2-27.2-30.2-21.5 0-38.8 22.3-38.8 52.1 0 19 6.4 31.8 6.4 31.8l-25.9 109.8c-7.7 32.5-.9 72.3-0.5 76.3.3 2.4 3.3 2.9 4.7 1.1 1.9-2.5 27-33.5 35.5-64.5 2.4-8.7 13.8-54 13.8-54 7.2 13.7 28.2 25.8 50.5 25.8 66.5 0 111.6-60.6 111.6-141.8C402.1 172.5 346.3 120 266.6 120z" fill="white"/>
</svg> 