<?xml version="1.0" encoding="UTF-8"?>
<svg width="512" height="512" viewBox="0 0 512 512" fill="none" xmlns="http://www.w3.org/2000/svg">
  <circle cx="256" cy="256" r="256" fill="black"/>
  <path d="M412.2 206.5c-36.4 0-70.8-17.8-91.8-47.7v162.4c0 71.2-57.7 129-129 129s-129-57.8-129-129 57.7-129 129-129c8.1 0 16 .8 23.7 2.2v63.8c-7.6-1.7-15.5-2.6-23.7-2.6-46.4 0-84 37.6-84 84s37.6 84 84 84 84-37.6 84-84V128h64c0 47.1 38.2 85.3 85.3 85.3V206.5z" fill="white"/>
  <path d="M412.2 206.5v-7.2c-47.1 0-85.3-38.2-85.3-85.3h-64v293.2c0 46.4-37.6 84-84 84s-84-37.6-84-84 37.6-84 84-84c8.2 0 16.1.9 23.7 2.6v-63.8c-7.7-1.4-15.6-2.2-23.7-2.2-71.3 0-129 57.8-129 129s57.7 129 129 129 129-57.8 129-129V158.8c21 29.9 55.4 47.7 91.8 47.7" fill="#00F2EA"/>
  <path d="M412.2 206.5v-7.2c-47.1 0-85.3-38.2-85.3-85.3h-64v293.2c0 46.4-37.6 84-84 84s-84-37.6-84-84 37.6-84 84-84c8.2 0 16.1.9 23.7 2.6v-63.8c-7.7-1.4-15.6-2.2-23.7-2.2-71.3 0-129 57.8-129 129s57.7 129 129 129 129-57.8 129-129V158.8c21 29.9 55.4 47.7 91.8 47.7" fill="#FF004F"/>
</svg> 