<?xml version="1.0" encoding="UTF-8"?>
<svg width="512" height="512" viewBox="0 0 512 512" fill="none" xmlns="http://www.w3.org/2000/svg">
  <circle cx="256" cy="256" r="256" fill="white"/>
  <path d="M386.8 249.6c0-9.9-.8-19.4-2.3-28.6H256v54.2h73.3c-3.2 17-12.8 31.4-27.3 41v34.1h44.2c25.9-23.8 40.6-58.9 40.6-100.7z" fill="#4285F4"/>
  <path d="M256 387c36.9 0 67.9-12.2 90.5-33.2l-44.2-34.1c-12.2 8.2-27.9 13-46.3 13-35.6 0-65.8-24-76.6-56.3h-45.7v35.2c22.5 44.7 68.7 75.4 122.3 75.4z" fill="#34A853"/>
  <path d="M179.4 276.4c-2.7-8.2-4.3-17-4.3-26.4s1.6-18.2 4.3-26.4v-35.2h-45.7c-9.3 18.5-14.6 39.4-14.6 61.6s5.3 43.1 14.6 61.6l45.7-35.2z" fill="#FBBC05"/>
  <path d="M256 169.3c20.1 0 38.1 6.9 52.3 20.4l39.2-39.2C323.5 127.8 292.5 113 256 113c-53.6 0-99.8 30.7-122.3 75.4l45.7 35.2c10.8-32.3 41-56.3 76.6-56.3z" fill="#EA4335"/>
</svg> 