<?xml version="1.0" encoding="UTF-8"?>
<svg width="512" height="512" viewBox="0 0 512 512" fill="none" xmlns="http://www.w3.org/2000/svg">
  <circle cx="256" cy="256" r="256" fill="url(#instagram-gradient)"/>
  <path d="M256 128c-70.7 0-128 57.3-128 128s57.3 128 128 128 128-57.3 128-128-57.3-128-128-128zm0 211c-46.4 0-84-37.6-84-84s37.6-84 84-84 84 37.6 84 84-37.6 84-84 84zm165-216c0 16.6-13.4 30-30 30s-30-13.4-30-30 13.4-30 30-30 30 13.4 30 30z" fill="white"/>
  <defs>
    <linearGradient id="instagram-gradient" x1="0" y1="0" x2="512" y2="512" gradientUnits="userSpaceOnUse">
      <stop offset="0%" style="stop-color:#405DE6"/>
      <stop offset="50%" style="stop-color:#E1306C"/>
      <stop offset="100%" style="stop-color:#FFDC80"/>
    </linearGradient>
  </defs>
</svg> 